<?xml version="1.0" encoding="UTF-8"?>
<svg version="1.1" xmlns="http://www.w3.org/2000/svg" width="162" height="162">
<path d="M0 0 C18.20185573 -0.11671775 36.40361457 -0.2049313 54.60576344 -0.25906086 C63.05704559 -0.28486041 71.50809545 -0.32004407 79.95922852 -0.37719727 C87.32386081 -0.42697902 94.68832492 -0.45927828 102.05312079 -0.47044247 C105.95408582 -0.47697023 109.85456961 -0.49234765 113.75538063 -0.52865028 C117.42525838 -0.56252782 121.09445561 -0.57307007 124.76447487 -0.56553841 C126.75712373 -0.56757509 128.74969806 -0.59451344 130.74215698 -0.62210083 C132.51531532 -0.61179085 132.51531532 -0.61179085 134.32429504 -0.60127258 C135.86875919 -0.60818603 135.86875919 -0.60818603 137.44442463 -0.61523914 C140 0 140 0 141.80674267 2.4089632 C142.83534853 4.6424761 143.67464519 6.71405576 144.31640625 9.08203125 C144.52249512 9.84185303 144.72858398 10.6016748 144.94091797 11.38452148 C145.14604004 12.18575439 145.35116211 12.9869873 145.5625 13.8125 C145.77793457 14.64402588 145.99336914 15.47555176 146.21533203 16.33227539 C151.22727525 36.42401267 151.22727525 36.42401267 149 44 C148.98131731 45.39586378 149.00406721 46.79273467 149.0625 48.1875 C149.11655672 52.30256806 148.49284835 55.90657452 147.49609375 59.88671875 C146.90752512 62.20140901 146.90752512 62.20140901 146.625 65.4375 C145.93905452 69.34738922 144.6537733 72.57903343 143.12109375 76.22265625 C141.16756324 81.0622388 139.603608 86.03563905 138 91 C137.34 91 136.68 91 136 91 C135.71125 92.134375 135.4225 93.26875 135.125 94.4375 C134.568125 96.2009375 134.568125 96.2009375 134 98 C133.01 98.495 133.01 98.495 132 99 C129.83152429 102.59153789 127.81595138 106.21676796 126 110 C125.01 110 124.02 110 123 110 C122.71125 110.5775 122.4225 111.155 122.125 111.75 C121.08333333 113.83333333 120.04166667 115.91666667 119 118 C117.68 118 116.36 118 115 118 C115 118.99 115 119.98 115 121 C113.62646484 122.41040039 113.62646484 122.41040039 111.7109375 123.84765625 C111.01613281 124.37037109 110.32132812 124.89308594 109.60546875 125.43164062 C108.86941406 125.96982422 108.13335937 126.50800781 107.375 127.0625 C106.66214844 127.60455078 105.94929688 128.14660156 105.21484375 128.70507812 C101.27215019 131.63135252 97.83327291 133.77262313 93 135 C93 135.66 93 136.32 93 137 C91.68 137 90.36 137 89 137 C89 137.66 89 138.32 89 139 C83.01589463 141.32655091 77.41991126 143.42934122 71 144 C71 144.66 71 145.32 71 146 C70.39671875 146.06058594 69.7934375 146.12117187 69.171875 146.18359375 C68.37265625 146.26738281 67.5734375 146.35117188 66.75 146.4375 C65.96109375 146.51871094 65.1721875 146.59992188 64.359375 146.68359375 C62.02765821 146.94871546 62.02765821 146.94871546 59.91015625 147.5390625 C58 148 58 148 54.6875 147.9375 C50.96036294 147.83778043 50.96036294 147.83778043 47.375 149.0625 C43.76917919 150.06411689 42.54164166 149.82363759 39 149 C36.39866167 148.95870892 33.80783184 149.00011198 31.20703125 149.0625 C29 149 29 149 27 148 C25.02345248 147.76940279 23.04690076 147.53884149 21.0703125 147.30859375 C18.23328692 146.88571635 15.69704252 145.97093531 13 145 C10.42642301 144.24853168 7.84950185 143.51045828 5.26953125 142.78125 C3 142 3 142 0 140 C-0.36914349 137.56747246 -0.36914349 137.56747246 -0.36076355 134.44454956 C-0.36488754 133.26381866 -0.36901154 132.08308777 -0.3732605 130.86657715 C-0.36247467 129.56466431 -0.35168884 128.26275146 -0.34057617 126.92138672 C-0.3397303 125.5417991 -0.34020426 124.16221012 -0.34190369 122.78262329 C-0.34276663 119.03067769 -0.32509286 115.27901814 -0.30418181 111.52713919 C-0.28546459 107.60869377 -0.2836685 103.69024225 -0.28010559 99.77175903 C-0.27077051 92.34857545 -0.24613704 84.92552395 -0.21605712 77.50239861 C-0.18255852 69.05271301 -0.16603855 60.60302119 -0.15097082 52.15328574 C-0.11958868 34.76878068 -0.06679988 17.38440429 0 0 Z " fill="#FEFEFE" transform="translate(0,0)"/>
<path d="M0 0 C0.66 0.66 1.32 1.32 2 2 C4.78237655 1.59471099 4.78237655 1.59471099 7 0 C10.82011276 -0.360388 13.15684085 -0.54048663 16.4375 1.5625 C18.54724594 4.85370366 18.35519903 7.16385043 18 11 C17.67 11.66 17.34 12.32 17 13 C21.455 12.505 21.455 12.505 26 12 C26.24234375 12.66386719 26.4846875 13.32773437 26.734375 14.01171875 C29.36002965 21.11955243 29.36002965 21.11955243 34 27 C37.05429073 28.21284876 37.05429073 28.21284876 40 29 C42 31 42 31 42.265625 33.8984375 C42.26046875 35.04570313 42.2553125 36.19296875 42.25 37.375 C42.25773437 39.08816406 42.25773437 39.08816406 42.265625 40.8359375 C42.00894499 43.89344943 41.86543926 45.58391903 40 48 C37.46606647 48.99302801 34.96719564 49.50724748 32.3125 50.09375 C29.84689648 50.78518241 29.84689648 50.78518241 28.81640625 53.015625 C28.54699219 53.67046875 28.27757813 54.3253125 28 55 C27.319375 55.4125 26.63875 55.825 25.9375 56.25 C22.88114267 59.01058081 23.32447003 61.97657161 23 66 C22 67 22 67 18.62109375 67.09765625 C17.22652923 67.09098369 15.83198257 67.07902532 14.4375 67.0625 C13.37112305 67.05573242 13.37112305 67.05573242 12.28320312 67.04882812 C10.52209987 67.03700864 8.76103964 67.01907263 7 67 C6.67 66.01 6.34 65.02 6 64 C3.69 64 1.38 64 -1 64 C-1.495 65.485 -1.495 65.485 -2 67 C-3.74991334 67.02715383 -5.49994945 67.04646551 -7.25 67.0625 C-8.22453125 67.07410156 -9.1990625 67.08570312 -10.203125 67.09765625 C-12.65758678 67.01195577 -14.66168914 66.70706066 -17 66 C-17.08636719 65.39671875 -17.17273438 64.7934375 -17.26171875 64.171875 C-18.26406309 58.47046685 -19.28011699 56.51247107 -24 53 C-29.24834225 46.38252499 -29.72235832 40.21391315 -29 32 C-28.5 28.25 -28.5 28.25 -28 26 C-31.18762365 23.87491756 -33.26512223 23.4979837 -37 23 C-37 22.01 -37 21.02 -37 20 C-36.34 19.67 -35.68 19.34 -35 19 C-34.731875 18.195625 -34.46375 17.39125 -34.1875 16.5625 C-33 14 -33 14 -30.625 12.5 C-28 12 -28 12 -25.6875 13.375 C-25.130625 13.91125 -24.57375 14.4475 -24 15 C-24.33 17.31 -24.66 19.62 -25 22 C-22.52432105 20.89969824 -20.71371449 19.75891747 -18.625 18 C-15.81584872 15.85969426 -13.38015276 14.94329845 -10 14 C-10.33 13.01 -10.66 12.02 -11 11 C-11.35028204 7.14689752 -11.55418511 4.86452877 -9.4375 1.5625 C-6.12800365 -0.55897202 -3.85506762 -0.42834085 0 0 Z " fill="#96C118" transform="translate(77,46)"/>
<path d="M0 0 C0.66 0.66 1.32 1.32 2 2 C4.78237655 1.59471099 4.78237655 1.59471099 7 0 C10.82011276 -0.360388 13.15684085 -0.54048663 16.4375 1.5625 C18.70159958 5.09449535 18.7587407 6.86141434 18 11 C15.94156563 13.95666028 13.56342486 16.47717237 11 19 C10.34 19.66 9.68 20.32 9 21 C5.16958926 21.91667949 1.83003824 21.90975974 -2 21 C-7.0472634 17.31940248 -10.52109156 13.28402486 -11.8125 7.125 C-10.05794575 0.37671443 -6.69683513 -0.74409279 0 0 Z " fill="#E4252D" transform="translate(77,46)"/>
<path d="M0 0 C1.32 1.32 2.64 2.64 4 4 C2.02 4.33 0.04 4.66 -2 5 C-2.33 4.01 -2.66 3.02 -3 2 C-2.01 1.34 -1.02 0.68 0 0 Z " fill="#FCFDFA" transform="translate(71,63)"/>
<path d="M0 0 C1.32 0 2.64 0 4 0 C3.67 1.32 3.34 2.64 3 4 C1.35 3.67 -0.3 3.34 -2 3 C-1.34 2.01 -0.68 1.02 0 0 Z " fill="#FBFCF6" transform="translate(88,64)"/>
</svg>
